<?xml version="1.0" encoding="UTF-8"?>
<svg width="349px" height="58px" viewBox="0 0 349 58" version="1.1" xmlns="http://www.w3.org/2000/svg" xmlns:xlink="http://www.w3.org/1999/xlink">
    <!-- Generator: Sketch 52.1 (67048) - http://www.bohemiancoding.com/sketch -->
    <title>Logo</title>
    <desc>Created with Sketch.</desc>
    <g id="Page-1" stroke="none" stroke-width="1" fill="none" fill-rule="evenodd">
        <g id="Start" transform="translate(-51.000000, -229.000000)">
            <g id="Content-L" transform="translate(50.000000, 229.000000)">
                <g id="Logo-Horizontal-(Path)" transform="translate(1.000000, 0.000000)">
                    <g id="Group-3" stroke-width="1" transform="translate(-6.462963, -6.246154)">
                        <g id="Group-Copy-3" transform="translate(31.591430, 30.673077) rotate(-30.000000) translate(-31.591430, -30.673077) translate(8.740240, 8.365385)">
                            <path d="M6.11347339,6.32468257 L39.3179467,6.13400321 L39.18472,28.6017196 C37.216391,30.1494075 35.1677764,31.7551403 33.0388762,33.4189179 C30.909976,35.0826955 28.7956031,36.7304199 26.6957574,38.362091 L5.92279403,38.4813814 L6.11347339,6.32468257 Z" id="Rectangle-Copy-2" fill="#55C7F0" transform="translate(22.620370, 22.307692) rotate(10.000000) translate(-22.620370, -22.307692) "></path>
                            <g id="Note" transform="translate(22.935676, 22.226040) rotate(10.000000) translate(-22.935676, -22.226040) translate(3.315968, 3.264502)" fill="#000000">
                                <path d="M0,0 L0,38 L22.9125,38 L39,22.325 L39,0 L0,0 Z M24.375,29.925 L24.375,23.75 L30.7125,23.75 L24.375,29.925 Z M34.125,19 L19.5,19 L19.5,33.25 L4.875,33.25 L4.875,4.75 L34.125,4.75 L34.125,19 Z" id="Fill-2-Copy-2"></path>
                            </g>
                        </g>
                        <path d="M28.1600529,27.6615385 L62.3214286,27.6615385 L62.3214286,50.7292141 C60.3057484,52.3066788 58.2078203,53.9432669 56.0276443,55.6389786 C53.8474682,57.3346902 51.6821406,59.0140051 49.5316614,60.6769231 L28.1600529,60.6769231 L28.1600529,27.6615385 Z" id="Rectangle-Copy-6" fill="#F7DD01"></path>
                        <g id="Note" transform="translate(25.851852, 25.430769)" fill="#000000">
                            <path d="M0,0 L0,38 L23.5,38 L40,22.325 L40,0 L0,0 Z M25,29.925 L25,23.75 L31.5,23.75 L25,29.925 Z M35,19 L20,19 L20,33.25 L5,33.25 L5,4.75 L35,4.75 L35,19 Z" id="Fill-2-Copy-2"></path>
                        </g>
                    </g>
                    <path d="M92.7797425,57.3474537 L72.015873,57.3474537 L72.015873,19.3910079 L79.0306938,19.3910079 L79.0306938,51.4201577 L92.7797425,51.4201577 L92.7797425,57.3474537 Z M119.053801,57.3474537 L95.5401213,57.3474537 L95.5401213,19.3910079 L119.053801,19.3910079 L119.053801,25.3183039 L102.554942,25.3183039 L102.554942,35.2152568 L116.977414,35.2152568 L116.977414,40.9794162 L102.554942,40.9794162 L102.554942,51.4201577 L119.053801,51.4201577 L119.053801,57.3474537 Z M151.837612,57.3474537 L144.935029,57.3474537 L142.185219,47.4505007 L129.558541,47.4505007 L126.808732,57.3474537 L120.074504,57.3474537 L131.522691,19.3910079 L140.389425,19.3910079 L151.837612,57.3474537 Z M140.501662,41.9582357 L137.471259,31.571873 L136.236651,25.5358193 L135.450991,25.5358193 L134.216382,31.571873 L131.242098,41.9582357 L140.501662,41.9582357 Z M174.576201,57.3474537 L163.745317,35.7590454 L160.995508,29.1792031 L160.209848,29.1792031 L160.658796,35.9765608 L160.658796,57.3474537 L154.036805,57.3474537 L154.036805,19.3910079 L161.837286,19.3910079 L172.668169,40.9794162 L175.417979,47.5592585 L176.203639,47.5592585 L175.75469,40.7619007 L175.75469,19.3910079 L182.376681,19.3910079 L182.376681,57.3474537 L174.576201,57.3474537 Z M196.427461,57.3474537 L196.427461,19.3910079 L213.094675,19.3910079 C219.211599,19.3910079 222.354238,23.0343916 222.354238,29.1248242 C222.354238,34.1276795 220.109496,36.9553804 215.900603,37.2272747 L215.900603,38.0429576 C220.502326,38.0429576 223.701084,41.5232048 223.701084,46.4716812 C223.701084,52.7252504 220.165614,57.3474537 214.665995,57.3474537 L196.427461,57.3474537 Z M203.442282,40.9250373 L203.442282,51.4201577 L212.645727,51.4201577 C214.946588,51.4201577 216.349552,50.3325804 216.349552,47.5048796 L216.349552,44.8403154 C216.349552,42.0126145 214.946588,40.9250373 212.645727,40.9250373 L203.442282,40.9250373 Z M203.442282,25.3183039 L203.442282,35.1608779 L211.523355,35.1608779 C213.768098,35.1608779 215.114943,34.1820584 215.114943,31.5174941 L215.114943,28.9616876 C215.114943,26.2971234 213.768098,25.3183039 211.523355,25.3183039 L203.442282,25.3183039 Z M240.996172,58 C231.624371,58 225.619684,52.3445983 225.619684,38.3692308 C225.619684,24.3938632 231.624371,18.7384615 240.996172,18.7384615 C250.367972,18.7384615 256.372659,24.3938632 256.372659,38.3692308 C256.372659,52.3445983 250.367972,58 240.996172,58 Z M240.996172,52.0183252 C246.046842,52.0183252 248.965008,48.8099723 248.965008,43.1001918 L248.965008,33.6382698 C248.965008,27.9284892 246.046842,24.7201364 240.996172,24.7201364 C235.945501,24.7201364 233.027335,27.9284892 233.027335,33.6382698 L233.027335,43.1001918 C233.027335,48.8099723 235.945501,52.0183252 240.996172,52.0183252 Z M287.753506,57.3474537 L280.850923,57.3474537 L278.101113,47.4505007 L265.474435,47.4505007 L262.724626,57.3474537 L255.990398,57.3474537 L267.438585,19.3910079 L276.305319,19.3910079 L287.753506,57.3474537 Z M276.417556,41.9582357 L273.387153,31.571873 L272.152545,25.5358193 L271.366885,25.5358193 L270.132276,31.571873 L267.157992,41.9582357 L276.417556,41.9582357 Z M296.96752,42.3932666 L296.96752,57.3474537 L289.952699,57.3474537 L289.952699,19.3910079 L306.170965,19.3910079 C313.01743,19.3910079 316.665137,23.686938 316.665137,30.9193267 C316.665137,36.6291072 314.364276,40.4900064 310.043146,41.8494779 L317.170204,57.3474537 L309.594197,57.3474537 L303.140562,42.3932666 L296.96752,42.3932666 Z M296.96752,36.7378649 L305.441424,36.7378649 C307.854522,36.7378649 309.313605,35.5959088 309.313605,32.7138291 L309.313605,29.3423397 C309.313605,26.46026 307.854522,25.3183039 305.441424,25.3183039 L296.96752,25.3183039 L296.96752,36.7378649 Z M320.660124,57.3474537 L320.660124,19.3910079 L334.016343,19.3910079 C343.388143,19.3910079 349,24.883273 349,38.3692308 C349,51.8551886 343.388143,57.3474537 334.016343,57.3474537 L320.660124,57.3474537 Z M327.674945,51.4201577 L334.016343,51.4201577 C338.786421,51.4201577 341.536231,48.538078 341.536231,42.8282975 L341.536231,33.9101641 C341.536231,28.2003835 338.786421,25.3183039 334.016343,25.3183039 L327.674945,25.3183039 L327.674945,51.4201577 Z" id="Lean-Board-Copy" fill="#000000"></path>
                </g>
            </g>
        </g>
    </g>
</svg>